/* XPM */
static char * bottom_left_inactive_xpm[] = {
"28 100 36 1",
" 	c None",
".	c #009FA1",
"+	c #000000",
"@	c #00393A",
"#	c #003738",
"$	c #003132",
"%	c #004748",
"&	c #004344",
"*	c #003D3E",
"=	c #005152",
"-	c #004D4E",
";	c #00494A",
">	c #003B3C",
",	c #005B5C",
"'	c #00595A",
")	c #005354",
"!	c #004546",
"~	c #006364",
"{	c #006162",
"]	c #005758",
"^	c #004F50",
"/	c #00696A",
"(	c #006768",
"_	c #005D5E",
":	c #006B6C",
"<	c #006D6E",
"[	c #005F60",
"}	c #006566",
"|	c #003F40",
"1	c #004142",
"2	c #004B4C",
"3	c #005556",
"4	c #006F70",
"5	c #007172",
"6	c #007374",
"7	c #007576",
"          .+++++++++++++++++",
"          .+++++++++++++++++",
"          .+++++++++++++++++",
"         .++++++++++++++++++",
"        .+++++++++++++++++++",
"       .++++++++++++++++++++",
"      .+++++++++++++++++++++",
"     .++++++++++++++++++++++",
"    .+++++++++++++++++++++++",
"   .++++++++++++++++++++++++",
"  .+++++++++++++++++++++++++",
" .++++++++++++++++++++++++++",
".+++++++++++++++++++++++++++",
".+++++++++++++++++++++++++++",
".+++++++++++++++++++++++++++",
".+++++++++++++++++++++++++++",
".+++++++++++++++++++++++++++",
".+++++++++++++++++++++++++++",
".+++++++++++++++++++++++++++",
".+++++++++++++++++++++++++++",
".+++++++++++++++++++++++++++",
".+++++++++++++++++++++++++++",
".+++++++++++++++++++++++++++",
".+++++++++++++++++++++++++++",
".+++++++++++++++++++++++++++",
".+++++++++++++++++++++++++++",
".+++++++++++++++++++++++++++",
".+++++++++++++++++++++++++++",
".+++++++++++++++++++++++++++",
".+++++++++++++++++++++++++++",
".+++++++++++++++++++++++++++",
".+++++++++++++++++++++++++++",
".+++++++++++++++++++++++++++",
".+++++++++++++++++++++++++++",
".+++++++++++++++++++++++++++",
".+++++++++++++++++++++++++++",
".+++++++++++++++++++++++++++",
".+++++++++++++++++++++++++++",
".+++++++++++++++++++++++++++",
".+++++++++++++++++++++++++++",
".+++++++++++++++++++++++++++",
".+++++++++++++++++++++++++++",
".+++++++++++++++++++++++++++",
".+++++++++++++++++++++++++++",
".+++++++++++++++++++++++++++",
".+++++++++++++++++++++++++++",
".+++++++++++++++++++++++++++",
".+++++++++++++++++++++++++++",
".+++++++++++++++++++++++++++",
".+++++++++++++++++++++++++++",
".+++++++++++++++++++++++++++",
".+++++++++++++++++++++++++++",
".+++++++++++++++++++++++++++",
".+++++++++++++++++++++++++++",
".+++++++++++++++++++++++++++",
".+++++++++++++++++++++++++++",
".+++++++++++++++++++++++++++",
".+++++++++++++++++++++++++++",
".+++++++++++++++++++++++++++",
".+++++++++++++++++++++++++++",
".+++++++++++++++++++++++++++",
".+++++++++++++++++++++++++++",
".+++++++++++++++++++++++++++",
".+++++++++++++++++++++++++++",
".+++++++++++++++++++++++++++",
".+++++++++++++++++++++++++++",
".+++++++++++++++++++++++++++",
".+++++++++++++++++++++++++++",
".+++++++++++++++++++++++++++",
".+++++++++++++++++++++++++++",
".+++++++++++++++++++++++++++",
".+++++++++++++++++++++++++++",
".+++++++++++++++++++++++++++",
".+++++++++++++++++++++++++++",
".+++++++++++++++++++++++++++",
".@#$++++++++++++++++++++++++",
".%&*#+++++++++++++++++++++++",
".=-;&>++++++++++++++++++++++",
".,')-!*+++++++++++++++++++++",
".~{,]^%*++++++++++++++++++++",
" /(~_]^%*+++++++++++++++++++",
"  :(~_]^%*++++++++++++++++++",
"   </~['^%*+++++++++++++++++",
"    </}['^%*++++++++++++++++",
"     </}['^%*+++++++++++++++",
"      :/}['^%*++++++++++++++",
"       :/}['^%*+++++++++++++",
"        :/}['^%*++++++++++++",
"         :/}['^%*+++++++++++",
"          :/}['^%|++++++++++",
"           :/}['^;|+++++++++",
"            :/}['=;1++++++++",
"             :/}[')2&+++++++",
"              :/}{,3^%++++++",
"               </({_])^2;%!!",
"                <:(}{_,]]3))",
"                 4<:/}~~{{[_",
"                  54<<::///(",
"                   655544444",
"                    77666666"};
