/* XPM */
static char * bottom_left_active_xpm[] = {
"28 100 60 1",
" 	c None",
".	c #65CCCC",
"+	c #000000",
"@	c #00797A",
"#	c #007172",
"$	c #00696A",
"%	c #009294",
"&	c #008C8E",
"*	c #008284",
"=	c #007576",
"-	c #00ACAE",
";	c #00A2A4",
">	c #00989A",
",	c #007D7E",
"'	c #00C0C2",
")	c #00B8BA",
"!	c #00AEB0",
"~	c #008082",
"{	c #00D0D2",
"]	c #00CACC",
"^	c #00B4B6",
"/	c #00A6A8",
"(	c #009496",
"_	c #00DBDE",
":	c #00D7DA",
"<	c #00CED0",
"[	c #00C4C6",
"}	c #00A8AA",
"|	c #009698",
"1	c #00E1E4",
"2	c #00D2D4",
"3	c #00C6C8",
"4	c #00E3E6",
"5	c #00D3D6",
"6	c #00C8CA",
"7	c #00E5E8",
"8	c #00DDE0",
"9	c #008486",
"0	c #008688",
"a	c #00BABC",
"b	c #00AAAC",
"c	c #009A9C",
"d	c #00BCBE",
"e	c #00B0B2",
"f	c #00C2C4",
"g	c #00A4A6",
"h	c #009C9E",
"i	c #00BEC0",
"j	c #00DFE2",
"k	c #00B6B8",
"l	c #00B2B4",
"m	c #00E9EC",
"n	c #00D9DC",
"o	c #00CCCE",
"p	c #00EBEE",
"q	c #00E7EA",
"r	c #00EFF2",
"s	c #00EDF0",
"t	c #00F3F6",
"u	c #00F1F4",
"          .+++++++++++++++++",
"          .+++++++++++++++++",
"          .+++++++++++++++++",
"         .++++++++++++++++++",
"        .+++++++++++++++++++",
"       .++++++++++++++++++++",
"      .+++++++++++++++++++++",
"     .++++++++++++++++++++++",
"    .+++++++++++++++++++++++",
"   .++++++++++++++++++++++++",
"  .+++++++++++++++++++++++++",
" .++++++++++++++++++++++++++",
".+++++++++++++++++++++++++++",
".+++++++++++++++++++++++++++",
".+++++++++++++++++++++++++++",
".+++++++++++++++++++++++++++",
".+++++++++++++++++++++++++++",
".+++++++++++++++++++++++++++",
".+++++++++++++++++++++++++++",
".+++++++++++++++++++++++++++",
".+++++++++++++++++++++++++++",
".+++++++++++++++++++++++++++",
".+++++++++++++++++++++++++++",
".+++++++++++++++++++++++++++",
".+++++++++++++++++++++++++++",
".+++++++++++++++++++++++++++",
".+++++++++++++++++++++++++++",
".+++++++++++++++++++++++++++",
".+++++++++++++++++++++++++++",
".+++++++++++++++++++++++++++",
".+++++++++++++++++++++++++++",
".+++++++++++++++++++++++++++",
".+++++++++++++++++++++++++++",
".+++++++++++++++++++++++++++",
".+++++++++++++++++++++++++++",
".+++++++++++++++++++++++++++",
".+++++++++++++++++++++++++++",
".+++++++++++++++++++++++++++",
".+++++++++++++++++++++++++++",
".+++++++++++++++++++++++++++",
".+++++++++++++++++++++++++++",
".+++++++++++++++++++++++++++",
".+++++++++++++++++++++++++++",
".+++++++++++++++++++++++++++",
".+++++++++++++++++++++++++++",
".+++++++++++++++++++++++++++",
".+++++++++++++++++++++++++++",
".+++++++++++++++++++++++++++",
".+++++++++++++++++++++++++++",
".+++++++++++++++++++++++++++",
".+++++++++++++++++++++++++++",
".+++++++++++++++++++++++++++",
".+++++++++++++++++++++++++++",
".+++++++++++++++++++++++++++",
".+++++++++++++++++++++++++++",
".+++++++++++++++++++++++++++",
".+++++++++++++++++++++++++++",
".+++++++++++++++++++++++++++",
".+++++++++++++++++++++++++++",
".+++++++++++++++++++++++++++",
".+++++++++++++++++++++++++++",
".+++++++++++++++++++++++++++",
".+++++++++++++++++++++++++++",
".+++++++++++++++++++++++++++",
".+++++++++++++++++++++++++++",
".+++++++++++++++++++++++++++",
".+++++++++++++++++++++++++++",
".+++++++++++++++++++++++++++",
".+++++++++++++++++++++++++++",
".+++++++++++++++++++++++++++",
".+++++++++++++++++++++++++++",
".+++++++++++++++++++++++++++",
".+++++++++++++++++++++++++++",
".+++++++++++++++++++++++++++",
".+++++++++++++++++++++++++++",
".@#$++++++++++++++++++++++++",
".%&*=+++++++++++++++++++++++",
".-;>&,++++++++++++++++++++++",
".')!;%~+++++++++++++++++++++",
".{]'^/(*++++++++++++++++++++",
" _:<[)}|*+++++++++++++++++++",
"  1_23)}|*++++++++++++++++++",
"   4_56)}|*+++++++++++++++++",
"    4_53)}|*++++++++++++++++",
"     7853)}|*+++++++++++++++",
"      4_53)}|*++++++++++++++",
"       4_53)}|*+++++++++++++",
"        4_53)}|*++++++++++++",
"         4_53)}|*+++++++++++",
"          4_53)}|*++++++++++",
"           4_23)}|9+++++++++",
"            4_23)}>0++++++++",
"             4_23abc&+++++++",
"              4_56de;|++++++",
"               4_5]f)-gh|%hi",
"                4j:2]fdkl-b}",
"                 m48n5{o63[f",
"                  pq41j8n:::",
"                   rsspmq7q7",
"                    ttturuur"};
