/* XPM */
static char * bottom_active_xpm[] = {
"10 6 7 1",
" 	c None",
".	c #000000",
"+	c #008E90",
"@	c #00ACAE",
"#	c #00C4C6",
"$	c #00D9DC",
"%	c #00E7EA",
"..........",
"++++++++++",
"@@@@@@@@@@",
"##########",
"$$$$$$$$$$",
"%%%%%%%%%%"};
