/* XPM */
static char * bottom_right_active_xpm[] = {
"25 25 62 1",
" 	c None",
".	c #000000",
"+	c #00AAAC",
"@	c #009A9C",
"#	c #00B4B6",
"$	c #008C8E",
"%	c #00A6A8",
"&	c #00BEC0",
"*	c #007E80",
"=	c #00989A",
"-	c #00B2B4",
";	c #00C8CA",
">	c #006F70",
",	c #008A8C",
"'	c #00A4A6",
")	c #00BCBE",
"!	c #00D0D2",
"~	c #00797A",
"{	c #009496",
"]	c #00AEB0",
"^	c #00C6C8",
"/	c #00D7DA",
"(	c #008082",
"_	c #009C9E",
":	c #00B6B8",
"<	c #00CCCE",
"[	c #00DDE0",
"}	c #008486",
"|	c #00A2A4",
"1	c #00D2D4",
"2	c #00E1E4",
"3	c #00888A",
"4	c #00C0C2",
"5	c #00D3D6",
"6	c #00E3E6",
"7	c #00A8AA",
"8	c #00C2C4",
"9	c #00D5D8",
"0	c #00E5E8",
"a	c #00C4C6",
"b	c #00E7EA",
"c	c #008E90",
"d	c #00ACAE",
"e	c #00D9DC",
"f	c #009092",
"g	c #009294",
"h	c #00CACC",
"i	c #00DBDE",
"j	c #00E9EC",
"k	c #009EA0",
"l	c #00EBEE",
"m	c #00EDF0",
"n	c #00F1F4",
"o	c #009698",
"p	c #00F3F6",
"q	c #00CED0",
"r	c #00F5F8",
"s	c #00EFF2",
"t	c #00F7FA",
"u	c #00DFE2",
"v	c #00F9FC",
"w	c #00FBFE",
"........................+",
".......................@#",
"......................$%&",
".....................*=-;",
"....................>,')!",
"....................~{]^/",
"....................(_:<[",
"....................}|)12",
"....................3%456",
"....................,7890",
"....................$+a/b",
"....................c+a/b",
"....................cd^eb",
"....................fd^eb",
"....................g];eb",
"....................=-hij",
"....................k:<[j",
"....................%&12l",
"....................-^96m",
"....................&![jn",
"cccccccccccccfgok%-&<e6mp",
"++++++++++++dd]-:)^qe2jnr",
"aaaaaaaaaaaa^^;h<19[6lsrt",
"/////////////eei[u6bmnrtv",
"bbbbbbbbbbbbbbbjjlmnprtvw"};
