/* XPM */
static char * bottom_right_inactive_xpm[] = {
"25 25 35 1",
" 	c None",
".	c #000000",
"+	c #005152",
"@	c #00494A",
"#	c #005556",
"$	c #004344",
"%	c #004F50",
"&	c #005B5C",
"*	c #003B3C",
"=	c #005F60",
"-	c #003536",
";	c #004142",
">	c #00595A",
",	c #006364",
"'	c #00393A",
")	c #004748",
"!	c #005354",
"~	c #006768",
"{	c #003D3E",
"]	c #004B4C",
"^	c #005758",
"/	c #006162",
"(	c #00696A",
"_	c #003F40",
":	c #004D4E",
"<	c #006B6C",
"[	c #006566",
"}	c #006D6E",
"|	c #005D5E",
"1	c #006F70",
"2	c #004546",
"3	c #007172",
"4	c #007374",
"5	c #007576",
"6	c #007778",
"........................+",
".......................@#",
"......................$%&",
".....................*@#=",
"....................-;%>,",
"....................')!=~",
"....................{]^/(",
"...................._:>,<",
"....................;%&[}",
"....................$+|~}",
"....................$+|~}",
"....................$+|~1",
"....................$+|~1",
"....................2!=~1",
"....................2!=(1",
"....................)#=(1",
"....................]^/(1",
"....................%&,<3",
"....................#|~}3",
"....................&,(14",
"$$$$$$$$$$$$222)]%#&/~}34",
"+++++++++++++!!#^&=,~<145",
"|||||||||||||===/,~(}1456",
"~~~~~~~~~~~~~~(((<}134566",
"1111111111111111133455666"};
