/* XPM */
static char * left_inactive_xpm[] = {
"28 28 3 1",
" 	c None",
".	c #009FA1",
"+	c #000000",
"          .+++++++++++++++++",
"          .+++++++++++++++++",
"          .+++++++++++++++++",
"          .+++++++++++++++++",
"          .+++++++++++++++++",
"          .+++++++++++++++++",
"          .+++++++++++++++++",
"          .+++++++++++++++++",
"          .+++++++++++++++++",
"          .+++++++++++++++++",
"          .+++++++++++++++++",
"          .+++++++++++++++++",
"          .+++++++++++++++++",
"          .+++++++++++++++++",
"          .+++++++++++++++++",
"          .+++++++++++++++++",
"          .+++++++++++++++++",
"          .+++++++++++++++++",
"          .+++++++++++++++++",
"          .+++++++++++++++++",
"          .+++++++++++++++++",
"          .+++++++++++++++++",
"          .+++++++++++++++++",
"          .+++++++++++++++++",
"          .+++++++++++++++++",
"          .+++++++++++++++++",
"          .+++++++++++++++++",
"          .+++++++++++++++++"};
