/* XPM */
static char * left_active_xpm[] = {
"28 28 3 1",
" 	c None",
".	c #65CCCC",
"+	c #000000",
"          .+++++++++++++++++",
"          .+++++++++++++++++",
"          .+++++++++++++++++",
"          .+++++++++++++++++",
"          .+++++++++++++++++",
"          .+++++++++++++++++",
"          .+++++++++++++++++",
"          .+++++++++++++++++",
"          .+++++++++++++++++",
"          .+++++++++++++++++",
"          .+++++++++++++++++",
"          .+++++++++++++++++",
"          .+++++++++++++++++",
"          .+++++++++++++++++",
"          .+++++++++++++++++",
"          .+++++++++++++++++",
"          .+++++++++++++++++",
"          .+++++++++++++++++",
"          .+++++++++++++++++",
"          .+++++++++++++++++",
"          .+++++++++++++++++",
"          .+++++++++++++++++",
"          .+++++++++++++++++",
"          .+++++++++++++++++",
"          .+++++++++++++++++",
"          .+++++++++++++++++",
"          .+++++++++++++++++",
"          .+++++++++++++++++"};
