/* XPM */
static char * menu_pressed_xpm[] = {
"17 21 3 1",
" 	c None",
".	c #49FDFF",
"+	c #FFFFFF",
"                 ",
"                 ",
"                 ",
" ............... ",
".................",
".................",
".................",
"...+++++++++++...",
"...+++++++++++...",
".................",
"....+++++++++....",
"....++.....++....",
".....++...++.....",
"......++.++......",
".......+++.......",
"........+........",
".................",
".................",
".................",
" ............... ",
"                 "};
