/* XPM */
static char * menu_inactive_xpm[] = {
"17 21 2 1",
" 	c None",
".	c #00797A",
"                 ",
"                 ",
"                 ",
"                 ",
"                 ",
"                 ",
"                 ",
"                 ",
"                 ",
"                 ",
"                 ",
"   ...........   ",
"   ...........   ",
"                 ",
"    .........    ",
"    ..     ..    ",
"     ..   ..     ",
"      .. ..      ",
"       ...       ",
"        .        ",
"                 "};
