/* XPM */
static char * menu_active_xpm[] = {
"17 21 3 1",
" 	c None",
".	c #000000",
"+	c #01FCFF",
"                 ",
"                 ",
"                 ",
"                 ",
"                 ",
"                 ",
"                 ",
"                 ",
"                 ",
" ............... ",
" ............... ",
" ..+++++++++++.. ",
" ..+++++++++++.. ",
" ............... ",
" ...+++++++++... ",
" ...++.....++... ",
" ....++...++.... ",
" .....++.++..... ",
" ......+++...... ",
" .......+....... ",
" ............... "};
