/* XPM */
static char * right_active_xpm[] = {
"6 10 3 1",
" 	c None",
".	c #000000",
"+	c #65CCCC",
".....+",
".....+",
".....+",
".....+",
".....+",
".....+",
".....+",
".....+",
".....+",
".....+"};
