/* XPM */
static char * stick_active_xpm[] = {
"24 24 4 1",
" 	c None",
".	c #000000",
"+	c #5B5B5B",
"@	c #01FCFF",
"                        ",
"                        ",
"                        ",
"                        ",
"                        ",
"    ...............     ",
"    ...............     ",
"    ...............     ",
"    ......+@@+.....     ",
"    .....@@@@@@....     ",
"    ....+@+..+@+...     ",
"    ....@@....@@...     ",
"    ....@@....@@...     ",
"    ....+@+..+@+...     ",
"    .....@@@@@@....     ",
"    ......+@@+.....     ",
"    ...............     ",
"    ...............     ",
"    ...............     ",
"    ...............     ",
"                        ",
"                        ",
"                        ",
"                        "};
