/* XPM */
static char * title_3_inactive_xpm[] = {
"10 32 11 1",
" 	c None",
".	c #00797A",
"+	c #007778",
"@	c #007576",
"#	c #007374",
"$	c #006F70",
"%	c #006768",
"&	c #005D5E",
"*	c #005152",
"=	c #004344",
"-	c #000000",
"..........",
"..........",
"++++++++++",
"@@@@@@@@@@",
"##########",
"$$$$$$$$$$",
"%%%%%%%%%%",
"&&&&&&&&&&",
"**********",
"==========",
"----------",
"----------",
"----------",
"----------",
"----------",
"----------",
"----------",
"----------",
"----------",
"----------",
"----------",
"----------",
"----------",
"----------",
"----------",
"----------",
"----------",
"----------",
"----------",
"----------",
"----------",
"----------"};
