/* XPM */
static char * title_2_active_xpm[] = {
"10 32 12 1",
" 	c None",
".	c #01FCFF",
"+	c #00FBFE",
"@	c #00F9FC",
"#	c #00F7FA",
"$	c #00F1F4",
"%	c #00E7EA",
"&	c #00D9DC",
"*	c #00C4C6",
"=	c #00ACAE",
"-	c #008E90",
";	c #000000",
"..........",
"++++++++++",
"@@@@@@@@@@",
"##########",
"$$$$$$$$$$",
"%%%%%%%%%%",
"&&&&&&&&&&",
"**********",
"==========",
"----------",
";;;;;;;;;;",
";;;;;;;;;;",
";;;;;;;;;;",
";;;;;;;;;;",
";;;;;;;;;;",
";;;;;;;;;;",
";;;;;;;;;;",
";;;;;;;;;;",
";;;;;;;;;;",
";;;;;;;;;;",
";;;;;;;;;;",
";;;;;;;;;;",
";;;;;;;;;;",
";;;;;;;;;;",
";;;;;;;;;;",
";;;;;;;;;;",
";;;;;;;;;;",
";;;;;;;;;;",
";;;;;;;;;;",
";;;;;;;;;;",
";;;;;;;;;;",
";;;;;;;;;;"};
