/* XPM */
static char * title_4_active_xpm[] = {
"10 32 46 1",
" 	c None",
".	c #00FBFE",
"+	c #00F9FC",
"@	c #00F7FA",
"#	c #00F5F8",
"$	c #00F3F6",
"%	c #00F1F4",
"&	c #00EDF0",
"*	c #00EBEE",
"=	c #00EFF2",
"-	c #00E7EA",
";	c #00E3E6",
">	c #00E1E4",
",	c #00DBDE",
"'	c #00D5D8",
")	c #00D0D2",
"!	c #00E9EC",
"~	c #00D3D6",
"{	c #00CACC",
"]	c #00C2C4",
"^	c #00BCBE",
"/	c #00DDE0",
"(	c #00C0C2",
"_	c #00B4B6",
":	c #00AAAC",
"<	c #00A2A4",
"[	c #00CED0",
"}	c #00C4C6",
"|	c #00B6B8",
"1	c #009C9E",
"2	c #000000",
"3	c #00D2D4",
"4	c #00CCCE",
"5	c #00BABC",
"6	c #00AEB0",
"7	c #00A0A2",
"8	c #009092",
"9	c #009698",
"0	c #008688",
"a	c #009496",
"b	c #00888A",
"c	c #007D7E",
"d	c #008486",
"e	c #008082",
"f	c #007778",
"g	c #006D6E",
"...+@#$%&*",
".+@#$=*-;>",
"@@$%*->,')",
"$%&!;,~{]^",
"&!;/'{(_:<",
">/'[}|:122",
"34}5678222",
"^|6<902222",
"<1abc22222",
"defg222222",
"2222222222",
"2222222222",
"2222222222",
"2222222222",
"2222222222",
"2222222222",
"2222222222",
"2222222222",
"2222222222",
"2222222222",
"2222222222",
"2222222222",
"2222222222",
"2222222222",
"2222222222",
"2222222222",
"2222222222",
"2222222222",
"2222222222",
"2222222222",
"2222222222",
"2222222222"};
