/* XPM */
static char * title_4_inactive_xpm[] = {
"10 32 31 1",
" 	c None",
".	c #00797A",
"+	c #007778",
"@	c #007576",
"#	c #007374",
"$	c #007172",
"%	c #006F70",
"&	c #006D6E",
"*	c #006B6C",
"=	c #00696A",
"-	c #006566",
";	c #006364",
">	c #006162",
",	c #005D5E",
"'	c #00595A",
")	c #005B5C",
"!	c #005758",
"~	c #005152",
"{	c #004D4E",
"]	c #006768",
"^	c #004B4C",
"/	c #000000",
"(	c #005354",
"_	c #004546",
":	c #004748",
"<	c #004142",
"[	c #003B3C",
"}	c #003F40",
"|	c #003D3E",
"1	c #00393A",
"2	c #003334",
"..+++@@#$$",
"+++@@#$%&*",
"+@@#$%*=-;",
"@#$%&=->,'",
"$%&=->)!~{",
"*=];,!~^//",
"->,'({_///",
"'!({:<////",
"{^:<[/////",
"}|12//////",
"//////////",
"//////////",
"//////////",
"//////////",
"//////////",
"//////////",
"//////////",
"//////////",
"//////////",
"//////////",
"//////////",
"//////////",
"//////////",
"//////////",
"//////////",
"//////////",
"//////////",
"//////////",
"//////////",
"//////////",
"//////////",
"//////////"};
