/* XPM */
static char * top_right_active_xpm[] = {
"6 32 60 1",
" 	c None",
".	c #00F1F4",
"+	c #00F3F6",
"@	c #00F5F8",
"#	c #00F7FA",
"$	c #00F9FC",
"%	c #00FBFE",
"&	c #00E7EA",
"*	c #00EDF0",
"=	c #00DDE0",
"-	c #00E3E6",
";	c #00EBEE",
">	c #00EFF2",
",	c #00CED0",
"'	c #00D9DC",
")	c #00E1E4",
"!	c #00E9EC",
"~	c #00BEC0",
"{	c #00CCCE",
"]	c #000000",
"^	c #00D0D2",
"/	c #00B2B4",
"(	c #00C6C8",
"_	c #00D5D8",
":	c #00A6A8",
"<	c #00D2D4",
"[	c #009EA0",
"}	c #00B6B8",
"|	c #00989A",
"1	c #00CACC",
"2	c #00DBDE",
"3	c #009294",
"4	c #00AEB0",
"5	c #00C8CA",
"6	c #009092",
"7	c #00ACAE",
"8	c #008E90",
"9	c #00AAAC",
"0	c #00C4C6",
"a	c #00D7DA",
"b	c #008C8E",
"c	c #008A8C",
"d	c #00A8AA",
"e	c #00C2C4",
"f	c #00E5E8",
"g	c #00888A",
"h	c #00C0C2",
"i	c #00D3D6",
"j	c #65CCCC",
"k	c #008486",
"l	c #00A2A4",
"m	c #00BCBE",
"n	c #008082",
"o	c #009C9E",
"p	c #00797A",
"q	c #009496",
"r	c #006F70",
"s	c #00A4A6",
"t	c #007E80",
"u	c #009A9C",
".+@#$%",
"&*.@#$",
"=-;>@#",
",')!.@",
"~{'-*+",
"]~^=!.",
"]/(_-*",
"]:~<);",
"][}{=!",
"]|/12!",
"]345'&",
"]67('&",
"]87('&",
"]890a&",
"]b90a&",
"]cde_f",
"]g:hij",
"]klm<j",
"]no}{j",
"]pq4(j",
"]rcsmj",
"]]t|/j",
"]]]b:j",
"]]]]uj",
"]]]]]j",
"]]]]]j",
"]]]]]j",
"]]]]]j",
"]]]]]j",
"]]]]]j",
"]]]]]j",
"]]]]]j"};
