/* XPM */
static char * top_left_inactive_xpm[] = {
"28 100 35 1",
" 	c None",
".	c #00797A",
"+	c #007778",
"@	c #007576",
"#	c #007374",
"$	c #007172",
"%	c #006F70",
"&	c #006D6E",
"*	c #006B6C",
"=	c #00696A",
"-	c #006768",
";	c #006566",
">	c #006364",
",	c #006162",
"'	c #005D5E",
")	c #00595A",
"!	c #005758",
"~	c #005B5C",
"{	c #005152",
"]	c #004D4E",
"^	c #00494A",
"/	c #005F60",
"(	c #004B4C",
"_	c #000000",
":	c #004F50",
"<	c #004748",
"[	c #005556",
"}	c #004344",
"|	c #004142",
"1	c #005354",
"2	c #004546",
"3	c #003F40",
"4	c #003D3E",
"5	c #00393A",
"6	c #003334",
"                    ........",
"                   +.......+",
"                  ......++++",
"                 .....+++++@",
"                ...++++@@@##",
"               .+.+++@@@##$%",
"              ..+.+@@##$%&*=",
"             ..++++@#$%*-;>,",
"            ..++++@#$&=>,')!",
"           ..++++@#%*-,~!{]^",
"          ..++++@#%*;/){(___",
"         ..++++@#%*;'!:<____",
"        ..++++@$%*;'[]}_____",
"       ..++++@$%*;'[(}______",
"      ..++++@$%*;'[(|_______",
"     ..++++@$%*;'[(|________",
"    .+++++@$%*;'[(|_________",
"   ...+++@$%*;'[(|__________",
"  ...+++@#%*;'[(|___________",
" ...++@@#%*;'[(|____________",
".....+@#$*;'[(|_____________",
"....+@#$&-/!]}______________",
"...++@$%=,):}_______________",
"...+@#$*>~{<________________",
"...+@#%-/!(_________________",
"..++@$&;'{__________________",
".+++#$*>)]__________________",
".++@#%=,!^__________________",
"+++@#%=/[<__________________",
"..+@#%=/12__________________",
"..+@#%-/12__________________",
"..+@#%-'{}__________________",
"..+@#%-'{}__________________",
"..+@#%-'{}__________________",
"..+@#%-'{}__________________",
"..+@#%-'{}__________________",
"..+@#%-'{}__________________",
"..+@#%-'{}__________________",
"..+@#%-'{}__________________",
"..+@#%-'{}__________________",
"..+@#%-'{}__________________",
"..+@#%-'{}__________________",
"..+@#%-'{}__________________",
"..+@#%-'{}__________________",
"..+@#%-'{}__________________",
"..+@#%-'{}__________________",
"..+@#&-'{}__________________",
".++@#&-'{}__________________",
".++@$&;~:|__________________",
".++@$*>)]3__________________",
"++@#%=,!(4__________________",
"+@@$&;'125__________________",
"+@$&=,!]|6__________________",
"@#%=>~{25___________________",
"$%=>'1^4____________________",
"&=>'[(3_____________________",
"=>'[(|______________________",
",~1(|_______________________",
"!{^3________________________",
"]24_________________________",
"|5__________________________",
"+___________________________",
"+___________________________",
"+___________________________",
"+___________________________",
"+___________________________",
"+___________________________",
"+___________________________",
"+___________________________",
"+___________________________",
"+___________________________",
"+___________________________",
"+___________________________",
"+___________________________",
"+___________________________",
"+___________________________",
"+___________________________",
"+___________________________",
"+___________________________",
"+___________________________",
"+___________________________",
"+___________________________",
"+___________________________",
"+___________________________",
"+___________________________",
"+___________________________",
"+___________________________",
"+___________________________",
" +__________________________",
"  +_________________________",
"   +________________________",
"    +_______________________",
"     +______________________",
"      +_____________________",
"       +____________________",
"        +___________________",
"         +__________________",
"          +_________________",
"          +_________________",
"          +_________________"};
