/* XPM */
static char * top_left_active_xpm[] = {
"28 100 69 1",
" 	c None",
".	c #01FCFF",
"+	c #00FBFE",
"@	c #00F9FC",
"#	c #00F7FA",
"$	c #00F5F8",
"%	c #00F3F6",
"&	c #00EFF2",
"*	c #00EDF0",
"=	c #00E9EC",
"-	c #00EBEE",
";	c #00E7EA",
">	c #00E3E6",
",	c #00E1E4",
"'	c #00DDE0",
")	c #00F1F4",
"!	c #00DBDE",
"~	c #00D5D8",
"{	c #00D0D2",
"]	c #00CCCE",
"^	c #00D3D6",
"/	c #00C2C4",
"(	c #00BCBE",
"_	c #00B6B8",
":	c #00D7DA",
"<	c #00AAAC",
"[	c #00A2A4",
"}	c #009A9C",
"|	c #00DFE2",
"1	c #00C8CA",
"2	c #00BABC",
"3	c #00ACAE",
"4	c #009C9E",
"5	c #000000",
"6	c #00C6C8",
"7	c #00A4A6",
"8	c #009496",
"9	c #00C4C6",
"0	c #00B4B6",
"a	c #00A0A2",
"b	c #008E90",
"c	c #008A8C",
"d	c #00B2B4",
"e	c #009EA0",
"f	c #00CACC",
"g	c #009698",
"h	c #00AEB0",
"i	c #009294",
"j	c #00D9DC",
"k	c #009092",
"l	c #008C8E",
"m	c #00E5E8",
"n	c #00A8AA",
"o	c #00C0C2",
"p	c #00A6A8",
"q	c #00888A",
"r	c #00D2D4",
"s	c #008486",
"t	c #007E80",
"u	c #007778",
"v	c #00B8BA",
"w	c #006D6E",
"x	c #00BEC0",
"y	c #00797A",
"z	c #00989A",
"A	c #008284",
"B	c #00B0B2",
"C	c #008688",
"D	c #007B7C",
"                    ........",
"                   +.....+++",
"                  ...+++++++",
"                 ..+.+++@@@#",
"                ...++@@#$$%%",
"               .++++@#$%&&*=",
"              ..+++#$%&-;>,'",
"             .++@@#$)-;,!~{]",
"            .+++@#%&=>!^]/(_",
"           .+++@#%&;,:]/_<[}",
"          .+++@#%*;|~1234555",
"         .+++@#%*;'^6_785555",
"        .+++@#%*;'^90ab55555",
"       .+++@#%*;'^90ac555555",
"      .+++@#%*;'^9dec5555555",
"     ..++@#%*;'^9dec55555555",
"    .++@@#%*;'^9dec555555555",
"   ..++@#%*;'^9dec5555555555",
"  ...++#%&;'^9dec55555555555",
" .+.++#$&;|^90ec555555555555",
"...++@$)=,~60ac5555555555555",
"..++@#%->:1_ac55555555555555",
"...+@$&;!]27b555555555555555",
".+++#%-,^/385555555555555555",
".++@#);!f_e55555555555555555",
".++@$&>~/<555555555555555555",
".++@%*|{([555555555555555555",
".++#%-']_}555555555555555555",
".+@#)=!fdg555555555555555555",
".++#)=!1hi555555555555555555",
".++#);j63k555555555555555555",
".+@#);j63b555555555555555555",
".+@#);j63b555555555555555555",
".+@#);j93b555555555555555555",
".+@#);j93b555555555555555555",
".+@#);j93b555555555555555555",
".+@#);j93b555555555555555555",
".+@#);j93b555555555555555555",
".+@#);j93b555555555555555555",
".+@#);j93b555555555555555555",
".+@#);j93b555555555555555555",
".+@#);j93b555555555555555555",
".+@#);j93b555555555555555555",
".+@#);j93b555555555555555555",
".+@#);j9<b555555555555555555",
".+@#);:9<b555555555555555555",
".+@#);:9<l555555555555555555",
"++@$&m:/nc555555555555555555",
"++@$&>^opq555555555555555555",
"++#%*,r([s555555555555555555",
"+@$)=!]_4t555555555555555555",
"+#%*>~9hiu555555555555555555",
"+%&m!]v[qw555555555555555555",
"+&;'{x<iy5555555555555555555",
"+;'r/hzA55555555555555555555",
"+'r/B4C555555555555555555555",
"+{/Beq5555555555555555555555",
"+xh4q55555555555555555555555",
"+<}C555555555555555555555555",
"+iA5555555555555555555555555",
"+D55555555555555555555555555",
"+555555555555555555555555555",
"+555555555555555555555555555",
"+555555555555555555555555555",
"+555555555555555555555555555",
"+555555555555555555555555555",
"+555555555555555555555555555",
"+555555555555555555555555555",
"+555555555555555555555555555",
"+555555555555555555555555555",
"+555555555555555555555555555",
"+555555555555555555555555555",
"+555555555555555555555555555",
"+555555555555555555555555555",
"+555555555555555555555555555",
"+555555555555555555555555555",
"+555555555555555555555555555",
"+555555555555555555555555555",
"+555555555555555555555555555",
"+555555555555555555555555555",
"+555555555555555555555555555",
"+555555555555555555555555555",
"+555555555555555555555555555",
"+555555555555555555555555555",
"+555555555555555555555555555",
"+555555555555555555555555555",
"+555555555555555555555555555",
"+555555555555555555555555555",
" +55555555555555555555555555",
"  +5555555555555555555555555",
"   +555555555555555555555555",
"    +55555555555555555555555",
"     +5555555555555555555555",
"      +555555555555555555555",
"       +55555555555555555555",
"        +5555555555555555555",
"         +555555555555555555",
"          +55555555555555555",
"          +55555555555555555",
"          +55555555555555555"};
