/* XPM */
static char * top_right_inactive_xpm[] = {
"6 32 35 1",
" 	c None",
".	c #007374",
"+	c #007576",
"@	c #007778",
"#	c #009FA1",
"$	c #006F70",
"%	c #007172",
"&	c #00696A",
"*	c #006D6E",
"=	c #006364",
"-	c #006768",
";	c #006B6C",
">	c #005B5C",
",	c #006162",
"'	c #000000",
")	c #005556",
"!	c #005D5E",
"~	c #004F50",
"{	c #004B4C",
"]	c #005758",
"^	c #004748",
"/	c #005F60",
"(	c #004546",
"_	c #005354",
":	c #004344",
"<	c #005152",
"[	c #004142",
"}	c #006566",
"|	c #003F40",
"1	c #004D4E",
"2	c #00595A",
"3	c #003D3E",
"4	c #00494A",
"5	c #00393A",
"6	c #003334",
".++@@#",
"$%.+@#",
"&*$.+#",
"=-;$.#",
">,-*%#",
"'>=&$#",
"')!-*#",
"'~>=;#",
"'{],&#",
"'^)/&#",
"'(_/&#",
"'(_/-#",
"':<!-#",
"':<!-#",
"':<!-#",
"':<!-#",
"'[~>}#",
"'|12=#",
"'34),#",
"'5(<>#",
"'6|{)#",
"''5:1#",
"'''5:#",
"''''5#",
"'''''#",
"'''''#",
"'''''#",
"'''''#",
"'''''#",
"'''''#",
"'''''#",
"'''''#"};
